<?xml version="1.0" encoding="utf-8"?>
<!DOCTYPE svg PUBLIC "-//W3C//DTD SVG 20010904//EN" "http://www.w3.org/TR/2001/REC-SVG-20010904/DTD/svg10.dtd">
<svg version="1.0" xmlns="http://www.w3.org/2000/svg" width="413px" height="252px" viewBox="0 0 413 252" preserveAspectRatio="xMidYMid meet">
 <g fill="#ffffff">
  <path d="M0 126 l0 -126 206.5 0 206.5 0 0 126 0 126 -206.5 0 -206.5 0 0 -126z m273 21 c0 -1.3 -0.7 -2 -2 -2 -2.3 0 -2.6 1 -0.8 2.8 1.8 1.8 2.8 1.5 2.8 -0.8z m21.3 -6 c-0.7 -2.8 -1.3 -2.5 -1.3 0.6 0 1.4 0.4 2.3 0.9 2 0.5 -0.3 0.7 -1.5 0.4 -2.6z m-137.3 -8.4 c0 -10 0.3 -10.6 5.5 -10.6 2.4 0 4.7 -0.4 5 -1 0.4 -0.6 -1.5 -1 -5.1 -1 l-5.6 0 0.4 -9 c0.3 -7 0.1 -9 -0.9 -9 -0.9 0 -1.3 1.7 -1.3 6 0 3.3 -0.4 6 -1 6 -0.5 0 -1 2.2 -1 4.9 0 3.6 0.4 5.1 1.6 5.5 1.4 0.5 1.6 1.6 1.1 5.6 -0.3 2.8 -1.3 5.8 -2.2 6.6 -1.8 1.9 -1.1 3.4 1.6 3.4 1.7 0 1.9 -0.7 1.9 -7.4z m20 4.1 c0 -1.9 -0.1 -1.9 -2 -0.2 -2.1 1.9 -1.8 3.7 0.5 2.8 0.8 -0.3 1.5 -1.4 1.5 -2.6z m13.8 -4.4 c-0.2 -4.3 -0.1 -10.2 0.2 -13.2 0.4 -5.3 0.3 -5.5 -2.3 -6.2 l-2.7 -0.7 0 7.8 c0 6.2 0.3 8.1 1.6 8.8 1.2 0.7 1.5 2.1 1.3 6.1 -0.3 3.6 0 5.1 0.9 5.1 0.9 0 1.2 -2 1 -7.7z m62.2 -1.2 c0 -4.9 0.3 -10.3 0.6 -12 0.6 -2.7 1.1 -3.1 3.9 -3.1 1.9 0 3.5 0.6 3.8 1.3 0.3 0.8 1.1 0.6 2.7 -0.9 l2.2 -2.1 -5.9 -0.7 c-3.2 -0.4 -7.5 -0.9 -9.5 -1.2 -3.8 -0.6 -3.8 -0.6 -3.8 3 0 1.9 0.5 3.8 1 4.1 0.6 0.3 1 2.2 1 4.1 0 1.9 0.5 3.4 1 3.4 0.6 0 1 2.8 1 6.5 0 3.7 0.4 6.5 1 6.5 0.6 0 1 -3.6 1 -8.9z m-179 -10.5 l0 -18.5 2.8 -0.4 c2.3 -0.3 2.2 -0.4 -0.8 -0.6 l-3.5 -0.1 0.3 18.1 c0.3 14.4 0.1 18.3 -1 19 -1 0.7 -0.9 0.9 0.5 0.9 1.6 0 1.7 -1.5 1.7 -18.4z m135 16.5 c-1.3 -2.5 -1.3 -16.8 0 -17.6 1.7 -1 1.1 -2.5 -0.9 -2.5 -1.7 0 -2 0.9 -2.3 7.8 -0.5 11.6 0 14.2 2.3 14.2 1.6 0 1.8 -0.3 0.9 -1.9z m98.4 -5.8 c0.3 -4.2 1.1 -8 1.7 -8.4 0.7 -0.4 0.5 -0.8 -0.5 -1.2 -1.1 -0.4 -1.6 -1.9 -1.6 -4.7 0 -3.4 -0.3 -4 -2.1 -4 -1.9 0 -1.9 0.1 -0.5 1.6 2.1 2 2.1 8.3 0.1 9 -2.6 1 -1.6 15.4 1 15.4 0.8 0 1.4 -2.6 1.9 -7.7z m14.1 -0.5 c1 -2.6 -0.2 -2.2 -3 0.8 -2.9 3.1 -3.2 6.1 -0.7 6.6 1.2 0.3 1.9 -0.5 2.3 -2.7 0.4 -1.6 1 -3.8 1.4 -4.7z m-207.5 6.3 c0 -0.5 -0.7 -1.4 -1.6 -2.2 -1.2 -1 -1.5 -3.1 -1.2 -10.6 0.3 -8.5 0.1 -9.3 -1.5 -9.3 -1.6 0 -1.8 0.6 -1.3 3.8 0.3 2 0.8 7.2 1.2 11.5 0.5 6.6 0.9 7.7 2.5 7.7 1.1 0 1.9 -0.4 1.9 -0.9z m111 -1.1 c0 -1.2 -2.8 -2.5 -3.6 -1.7 -0.9 0.9 0.6 2.7 2.2 2.7 0.8 0 1.4 -0.5 1.4 -1z m48.8 -2 c-0.2 -0.6 -0.8 -0.6 -1.8 0 -1.3 0.9 -1.3 1.1 0 2 1.5 1 2.5 0 1.8 -2z m61.3 -16.5 c-0.5 -3 -0.5 -3 -1.1 -0.5 -1.5 5.6 -2.3 7 -4.1 7 -1.1 0 -1.9 0.7 -1.9 1.5 0 0.8 0.6 1.5 1.3 1.5 2.1 0 4.7 3.8 4.9 7.3 0.1 1.7 0.4 -0.6 0.7 -5.3 0.3 -4.7 0.4 -9.8 0.2 -11.5z m-236.6 6 c0.5 -4.1 0.3 -7.6 -0.5 -10.1 -0.7 -2.2 -1.4 -4.5 -1.6 -5.1 -0.6 -2.3 -2.4 -1.4 -2.4 1.1 0 1.3 0.7 2.7 1.6 3 1.3 0.5 1.5 1.9 1.2 7.9 -0.3 3.9 -0.8 8 -1.3 9 -0.5 1.3 -0.4 1.6 0.8 1.1 1.1 -0.4 1.8 -2.6 2.2 -6.9z m124.3 2.3 c1 -1.2 1.1 -1.8 0.4 -1.8 -1.5 0 -1.6 -5.5 -0.2 -8.1 0.8 -1.5 0.7 -1.9 -0.5 -1.9 -1.1 0 -1.5 1.1 -1.5 3.9 0 3 -0.4 4 -2 4.4 -2.4 0.6 -2.9 5.7 -0.5 5.7 0.8 0 1.5 0.6 1.6 1.3 0 0.7 0.3 0.6 0.6 -0.3 0.3 -0.8 1.2 -2.3 2.1 -3.2z m54.3 -1.6 c-0.6 -0.2 -1.1 -1.3 -1.1 -2.5 -0.1 -2.1 -0.1 -2.1 -1.2 -0.3 -0.8 1.5 -0.7 2.1 0.6 2.8 0.9 0.5 1.7 1.9 1.7 3.1 0.2 2 0.2 2 0.6 -0.3 0.3 -1.3 0 -2.6 -0.6 -2.8z m-149.6 -2.2 c0.3 -0.5 0.1 -2 -0.6 -3.2 -1.2 -2.2 -1.2 -2.2 -2 -0.3 -0.4 1.1 -0.8 2.6 -0.8 3.3 -0.1 1.4 2.5 1.6 3.4 0.2z m161.2 -13.8 c-1 -0.2 -2.5 0.2 -3.3 0.9 -1.3 1 -1.1 1.5 1.3 3 l2.8 1.9 0.5 -2.8 c0.4 -2.1 0.1 -2.8 -1.3 -3z m18.3 -8.2 c-0.8 -0.5 -1.8 -1 -2.1 -1 -1.1 0 -1.9 2.9 -1.2 4.6 0.5 1.4 0.9 1.3 2.7 -0.5 1.8 -1.9 1.9 -2.3 0.6 -3.1z"/>
 </g>
 <g fill="#010101">
  <path d="M86.8 200 c2.2 -0.9 2.2 -1.2 2.2 -19.5 0 -18.3 0 -18.6 -2.2 -19.5 -1.7 -0.6 -0.3 -0.9 5.2 -0.9 5.1 0 6.8 0.3 5.4 0.9 -1.2 0.4 -2.4 1.6 -2.8 2.6 -0.8 2.1 -0.7 32 0.1 34.1 0.3 0.8 1.5 1.9 2.7 2.3 1.4 0.6 -0.3 0.9 -5.4 0.9 -5.5 0 -6.9 -0.3 -5.2 -0.9z"/>
  <path d="M104.6 200 c3 -1.2 3.5 -3.2 3.3 -13.9 -0.1 -10 -1 -13.1 -3.4 -13.1 -0.8 0 -1.5 -0.3 -1.5 -0.8 0 -0.4 2.2 -0.7 4.9 -0.7 4.5 0 4.8 0.2 4.5 2.3 -0.5 2.4 1 3 2.3 0.8 2.4 -4 9.3 -4.7 12.8 -1.1 2.4 2.3 2.5 3 2.5 13.8 0 10.8 0.1 11.4 2.3 12.5 1.8 0.9 1 1.1 -4.8 1.1 -5.2 0 -6.4 -0.3 -4.7 -0.9 2.1 -0.9 2.2 -1.4 2.2 -12.8 0 -13.1 -0.6 -14.6 -5.6 -14 -4.8 0.5 -6.5 4.2 -6.7 14.8 -0.2 7.9 0 9.7 1.5 11.2 1.7 1.7 1.5 1.8 -4.9 1.7 -4.8 0 -6.2 -0.3 -4.7 -0.9z"/>
  <path d="M144.3 199.1 c-4.8 -3 -6.6 -7.3 -6.1 -14.3 0.5 -6.9 2.9 -10.7 8.1 -12.7 4.7 -1.8 10.2 -0.7 12.2 2.3 2 2.9 0.9 5.8 -1.9 5.4 -2.4 -0.3 -3.4 -3.7 -1.4 -4.9 2 -1.3 -0.9 -3 -4.6 -2.7 -4.2 0.4 -6.9 4.6 -7.4 11.6 -0.9 13 7.1 19.4 14.5 11.4 3 -3.2 3 -1.2 0 2.3 -3 3.6 -9.1 4.3 -13.4 1.6z"/>
  <path d="M165.7 200 c2.8 -1.2 3.2 -2.8 3.1 -14 0 -9.9 -0.9 -13 -3.3 -13 -0.8 0 -1.5 -0.3 -1.5 -0.8 0 -0.4 2 -0.7 4.5 -0.7 5.1 0 4.6 -1.7 5 15.5 0.2 12.3 0.1 11.9 2.8 13 1.6 0.6 0.2 0.9 -5.3 0.9 -5.3 0 -6.9 -0.3 -5.3 -0.9z"/>
  <path d="M187.4 199.1 c-3.6 -2.2 -5.4 -6.5 -5.4 -13 0 -9.8 7.1 -16.5 15.2 -14.4 l3.8 1 0 -6.4 c0 -5.7 -0.2 -6.5 -2.2 -7.3 -1.9 -0.7 -1.4 -0.9 2.4 -0.9 l4.8 -0.1 0.2 20.2 0.3 20.2 2.5 1.3 c2.3 1.2 2.1 1.3 -2.7 1.3 -4.7 0 -5.3 -0.2 -5.3 -2.1 l0 -2 -2.6 2 c-3.3 2.6 -7 2.7 -11 0.2z m12.1 -2.4 c1.1 -1.5 1.5 -4.9 1.5 -11.9 0 -9.4 -0.1 -9.8 -2.6 -11.4 -3.4 -2.3 -7.4 -0.9 -9.4 3.1 -1.9 4 -1.9 15.4 0 19 2.5 4.7 7.6 5.3 10.5 1.2z"/>
  <path d="M222.4 200 c-1.1 -0.4 -3.3 -2.2 -4.7 -4 -5.1 -6 -3.1 -18.9 3.5 -23 6.7 -4.2 14.9 -0.6 16.3 7.3 l0.7 3.7 -9.1 0 -9.1 0 0 3.1 c0 4.7 2.7 9.5 6.1 11 2.6 1 3.6 0.9 6.5 -0.4 1.9 -0.9 3.4 -2.1 3.4 -2.7 0 -0.5 0.5 -1 1 -1 1.9 0 -0.9 3.9 -4 5.5 -3.2 1.6 -7.3 1.8 -10.6 0.5z m9.8 -20.5 c-0.5 -4.4 -2.9 -7.7 -5.4 -7.3 -2.5 0.4 -5.4 4.1 -6.4 8.1 l-0.6 2.8 6.3 -0.3 6.4 -0.3 -0.3 -3z"/>
  <path d="M243.7 200 c2.8 -1.2 3.2 -2.9 3.1 -13.5 -0.1 -9.9 -1 -13.5 -3.3 -13.5 -0.8 0 -1.5 -0.3 -1.5 -0.8 0 -0.4 2 -0.7 4.5 -0.7 4 0 4.5 0.3 4.5 2.3 0 1.2 0.5 2.2 1 2.2 0.6 0 1 -0.4 1 -1 0 -1.4 5.5 -4 8.5 -4 1.4 0 3.7 1.1 5 2.5 2.3 2.3 2.5 3.1 2.5 13.2 0 11 0.4 12.6 3 13.6 0.8 0.3 -1.6 0.5 -5.5 0.6 -5.2 0 -6.4 -0.3 -4.7 -0.9 2.1 -0.9 2.2 -1.4 2.2 -12.8 0 -13.1 -0.6 -14.6 -5.6 -14 -5 0.6 -6.7 4.5 -6.8 15.4 0 8.3 0.2 9.8 1.9 11 1.7 1.2 1.1 1.4 -5.1 1.3 -4.9 0 -6.3 -0.3 -4.7 -0.9z"/>
  <path d="M282.9 199.1 c-2.3 -1.8 -2.4 -2.7 -2.7 -14.5 l-0.4 -12.5 -2.6 -0.4 -2.7 -0.4 2.8 -0.2 c2.5 -0.1 2.7 -0.4 2.7 -4 0 -2.6 0.5 -4.1 1.6 -4.5 2.9 -1.1 3.4 -0.6 3.4 3.8 l0 4.5 4.3 0.4 4.2 0.4 -4.2 0.1 -4.3 0.2 0 12.3 c0 8.2 0.4 12.7 1.2 13.5 2.1 2.1 4.7 1.3 6.3 -1.8 1.8 -3.5 2.9 -3.9 2 -0.7 -1.6 5.3 -7.4 7.2 -11.6 3.8z"/>
  <path d="M303.2 199 c-8.4 -5.1 -7.9 -21.2 0.8 -26.4 7.3 -4.2 16 0.7 16 8.9 0 2.5 -0.1 2.5 -8.5 2.5 -9.7 0 -10.3 0.4 -8.5 6.8 2.1 7.9 9.1 10.2 14.8 4.9 1.6 -1.4 2.3 -1.7 2 -0.7 -0.7 2.4 -6.8 6 -10.2 6 -1.7 0 -4.6 -0.9 -6.4 -2z m11.8 -17.9 c0 -10.5 -10 -12.1 -11.7 -1.8 l-0.6 3.7 6.2 0 c5.3 0 6.1 -0.3 6.1 -1.9z"/>
  <path d="M168.2 163.8 c-2.6 -2.6 0.1 -6.5 3.8 -5.3 1.6 0.5 2 1.4 1.8 3.3 -0.3 3 -3.5 4.1 -5.6 2z"/>
  <path d="M121 90.8 c-11.4 -5.8 -12.5 -27.2 -1.9 -35 6.4 -4.7 13.5 -5.5 18.4 -2.1 2.6 1.8 4.3 1.6 4.8 -0.4 0.3 -1 0.5 1.5 0.6 5.5 0 3.9 -0.1 7.2 -0.4 7.2 -0.2 0 -0.9 -1.7 -1.5 -3.8 -2.8 -10.7 -16.3 -12.5 -21.2 -2.8 -2.5 5 -3.5 15.4 -1.9 21.3 3.8 14.1 19.5 15.2 23.7 1.7 1.2 -3.8 1.2 -3.7 1.2 3.6 0.1 5.4 -0.2 6.9 -0.8 5.3 -1.1 -2.8 -0.7 -2.7 -5.5 -0.3 -5.1 2.6 -10 2.5 -15.5 -0.2z"/>
  <path d="M152.3 91.5 c-2.4 -1.7 -3 -5.3 -1.4 -8.4 0.5 -0.9 3.3 -2.8 6.3 -4.1 2.9 -1.3 6.1 -3.1 7.1 -3.9 3.7 -3.1 1 -10.6 -4.1 -11.4 -2.2 -0.3 -2 -0.4 1 -0.6 2.6 -0.1 4.5 0.6 6.4 2.2 2.5 2.2 2.6 2.7 2.5 11.5 -0.2 11.4 0.5 14.5 3 13.9 2.3 -0.6 2.5 0.8 0.3 1.7 -3 1.1 -5.3 0.6 -6.8 -1.6 -1.5 -2.1 -1.6 -2.1 -3.4 -0.4 -2.8 2.5 -8.2 3.1 -10.9 1.1z m10.8 -2.4 c2 -1.6 2.4 -2.9 2.5 -7.5 0 -3.1 -0.2 -5.6 -0.5 -5.5 -0.3 0 -2.6 1.3 -5.1 2.8 -3.6 2.2 -4.6 3.3 -4.8 6 -0.6 5.8 3.4 7.9 7.9 4.2z"/>
  <path d="M178.8 91.8 c2.2 -1.1 2.2 -1.4 2.2 -19.9 0 -18.3 -0.1 -18.8 -2.2 -20.3 -2.2 -1.5 -2.1 -1.6 2.5 -1.6 l4.7 0 0 20.3 c0 20.2 0 20.4 2.3 21.5 1.8 0.9 0.9 1.1 -4.8 1.1 -5.7 0 -6.6 -0.2 -4.7 -1.1z"/>
  <path d="M200.3 91.1 c-1.8 -1.1 -3.9 -3.5 -4.9 -5.2 -2.2 -4.3 -1.5 -13.9 1.3 -17.7 2.4 -3.3 8.9 -5.8 12.6 -4.8 5.9 1.4 8.8 7.7 3.9 8.4 -2.6 0.4 -4 -2.1 -2.3 -4.2 1.6 -1.9 -1 -3.8 -4.5 -3.4 -3.9 0.4 -6.6 4.7 -7.2 11.1 -1.1 13.3 6.7 19.9 14.4 12.2 3 -3 3.2 -1.5 0.1 2 -3 3.6 -9.1 4.3 -13.4 1.6z"/>
  <path d="M228 92.3 c-3.3 -1.2 -4 -3.6 -4 -14 0 -9.9 -0.1 -10.5 -2.6 -12.8 l-2.5 -2.3 4.8 0.1 4.8 0.2 0.5 13.5 0.5 13.5 3.4 0 c5.4 0 7.5 -3.7 7.8 -13.7 0.2 -8.3 -0.7 -11.8 -3.2 -11.8 -0.8 0 -1.5 -0.3 -1.5 -0.8 0 -0.4 2 -0.7 4.5 -0.7 3.8 0 4.5 0.3 4.6 2 0 1.1 0.1 6.5 0.1 11.9 0.1 11.8 0.4 13.5 3.2 14.6 1.6 0.7 0.8 0.9 -3.1 0.9 -4.5 0.1 -5.1 -0.1 -4.6 -1.8 0.3 -1 0 -2.2 -0.6 -2.5 -0.6 -0.4 -1.1 -0.3 -1.1 0.3 0 2.5 -7.3 4.7 -11 3.4z"/>
  <path d="M254.8 91.8 c2.2 -1.1 2.2 -1.4 2.2 -19.9 0 -18.3 -0.1 -18.8 -2.2 -20.3 -2.2 -1.5 -2.1 -1.6 2.5 -1.6 l4.7 0 0 20.3 c0 20.2 0 20.4 2.3 21.5 1.8 0.9 0.9 1.1 -4.8 1.1 -5.7 0 -6.6 -0.2 -4.7 -1.1z"/>
  <path d="M276.4 91.5 c-6.4 -3.3 -8.7 -15.8 -4.1 -22.6 3 -4.5 6.3 -6.1 11.5 -5.6 4.9 0.5 7.9 2.8 9.8 7.4 2.8 6.5 1.2 15.6 -3.4 19.7 -2.9 2.5 -9.9 3.1 -13.8 1.1z m11 -2.8 c3 -4.1 3 -17.3 0 -21.4 -2.9 -3.8 -7 -3.8 -9.8 0 -1.7 2.4 -2.1 4.3 -2.1 11.2 0 7.5 0.3 8.6 2.5 11 3.1 3.3 6.6 3 9.4 -0.8z"/>
  <path d="M151.7 71.3 c-1.9 -1.8 1.6 -7.3 4.6 -7.3 0.8 0 0.7 0.4 -0.3 1.1 -1.1 0.8 -1.2 1.2 -0.2 1.6 0.6 0.2 1.2 1.6 1.2 2.9 0 1.8 -0.5 2.4 -2.3 2.4 -1.3 0 -2.7 -0.3 -3 -0.7z"/>
  <path d="M160.5 53.5 c4 -7 5.2 -8.2 6.7 -6.7 1.6 1.6 0.4 3.5 -5.2 8.1 l-4.3 3.6 2.8 -5z"/>
 </g>
 <g fill="#fefff4">
  <path d="M294.6 155.1 c-0.8 -1.2 2.3 -4.3 3.8 -3.8 0.6 0.2 1.1 1.2 1.1 2.3 0 2 -3.8 3.3 -4.9 1.5z"/>
  <path d="M273.5 152.7 c-6.2 -1.4 -7 -2.1 -7.3 -6.6 -0.3 -4 -0.2 -4.1 2.7 -4.1 3.9 0 4 -1.4 0.1 -3 -1.7 -0.7 -3.3 -1.6 -3.6 -2.1 -0.9 -1.5 2.7 -5.7 5.7 -6.8 3.3 -1.1 3.1 -3.6 -0.2 -2.6 -1.5 0.5 -1.9 0.1 -1.9 -1.4 0 -1.2 0.5 -2.1 1.1 -2.1 0.6 0 0.3 -0.7 -0.5 -1.6 -2.1 -2.1 -2 -3.4 0.2 -3.4 2.4 0 4.6 -4.1 3.7 -6.9 -0.5 -1.8 -0.2 -2.1 2.4 -2.1 2.1 0 3.8 -0.8 5.3 -2.5 1.2 -1.4 3.1 -2.5 4.3 -2.5 1.2 0 3 -0.6 4.1 -1.4 1.8 -1.4 1.8 -1.5 0.2 -2.1 -3 -1.2 -2.2 -3.7 1 -3.3 2.1 0.2 2.7 0.8 2.8 2.8 0.2 4.5 0.4 5.3 1.1 4.7 1 -1 3.3 1.3 3.3 3.4 0 2.9 1.9 3.2 2.6 0.4 0.5 -1.9 0 -3.5 -1.5 -5.6 l-2.2 -3 3 -2.9 c3.5 -3.5 5.4 -3.7 9.9 -1 4 2.5 4.1 4.8 0.2 8.5 -3.6 3.4 -3.7 4.3 -0.7 4.7 1.6 0.2 2.1 0.9 1.9 2.3 -0.8 4.9 -0.6 6 0.9 6.3 1.1 0.2 2 -0.7 2.7 -2.7 0.6 -1.7 1.5 -3.1 2.1 -3.1 0.5 0 0.7 -1 0.4 -2.1 -0.5 -1.9 -0.3 -2 1.2 -1.1 1.3 0.7 2.4 0.7 3.6 -0.1 1.3 -0.8 2.5 -0.8 4.3 0.1 1.8 0.8 2.6 0.8 2.6 0.1 0 -1.4 6.1 -0.1 8 1.7 1.2 1.2 1.5 4.2 1.5 13.9 0 9.4 0.3 12.5 1.2 12.5 0.7 0 1.3 -0.5 1.3 -1.1 0 -0.8 0.5 -0.7 1.5 0.1 2.6 2.2 1.3 4.2 -3.6 5.5 -4.3 1 -4.8 1 -5.9 -0.9 -1.2 -1.8 -1.3 -1.9 -2.5 -0.3 -0.9 1.3 -2.7 1.7 -7.3 1.7 -3.3 0 -6.4 -0.5 -6.7 -1 -0.5 -0.8 -1.1 -0.7 -2.1 0.1 -0.9 0.7 -3.9 0.9 -8.9 0.5 -6.7 -0.5 -7.5 -0.3 -7.5 1.3 0 3.7 -11.2 11 -13.7 8.9 -0.8 -0.6 -2.3 -0.7 -4 -0.1 -1.7 0.5 -4.4 0.5 -6.8 0z m14.7 -5.4 c1 -0.9 1.8 -2.4 1.8 -3.5 0 -2.5 -4 -2.4 -4.7 0.2 -0.7 2.5 -3.8 2.6 -5.2 0.3 -0.9 -1.7 -1.1 -1.7 -2.7 -0.1 -2.2 2.2 -1.4 3 3.9 3.9 2.3 0.3 4.4 0.7 4.6 0.8 0.3 0 1.3 -0.6 2.3 -1.6z m11.9 -13.8 c-0.2 -4.8 -0.7 -6.4 -2.7 -8.2 -2.9 -2.6 -3.4 -2.8 -3.4 -1 0 0.7 -0.9 2.3 -2 3.5 -1.1 1.2 -2 3 -2 4.2 0 2.4 -0.9 2.6 -2.5 0.3 -1 -1.3 -1.8 -1.5 -3.5 -0.7 -2.1 0.9 -2.2 1.1 -0.6 2.7 1 1 3.3 1.7 5.3 1.7 3.3 0 3.5 -0.2 3 -2.6 -0.3 -1.9 0 -2.7 1.7 -3.4 2.9 -1.1 3.9 -0.2 3.2 2.7 -0.4 1.3 -0.3 2.9 0.1 3.6 0.4 0.7 0.8 1.5 0.9 2 0.1 0.4 0.2 1 0.3 1.3 0 0.3 0.6 0.4 1.3 0.2 0.8 -0.3 1.1 -2.4 0.9 -6.3z m-19.1 0.8 c0 -0.7 -0.2 -1.3 -0.4 -1.3 -0.2 0 -1.1 -0.3 -2 -0.6 -1.2 -0.4 -1.6 0 -1.6 1.5 0 1.2 -0.6 2.1 -1.5 2.1 -0.8 0 -1.5 0.4 -1.5 0.9 0 0.5 1.5 0.4 3.5 -0.2 1.9 -0.6 3.5 -1.6 3.5 -2.4z m46 1.7 c0.6 -1.1 1.7 -2 2.5 -2 1.2 0 1.2 -0.4 -0.2 -2 -2.1 -2.4 -4.8 -2.7 -3.9 -0.4 0.3 0.8 -0.1 2.2 -0.9 3 -0.8 0.9 -1.5 2 -1.5 2.5 0 1.7 2.9 0.9 4 -1.1z m-14.4 -0.6 c-1.2 -3.2 3.2 -8.5 8.8 -10.5 4.7 -1.7 4.6 -2.9 -0.3 -2.9 -2.2 0 -4.3 -0.4 -4.6 -1 -1.1 -1.9 -2.5 -1 -2.5 1.5 0 1.4 -0.7 2.8 -1.6 3.2 -1 0.4 -1.4 1.3 -1 2.9 0.3 1.2 0.2 2.6 -0.4 2.9 -1.7 1 -1.2 5.5 0.6 5.5 1.1 0 1.4 -0.5 1 -1.6z m-27.6 -8.9 c0 -0.9 0.6 -1.8 1.4 -2.1 1.6 -0.6 1 -3.4 -0.7 -3.4 -1.8 0 -4.7 3.2 -4.7 5.2 0 1.1 0.7 1.8 2 1.8 1.1 0 2 -0.7 2 -1.5z m15 -4 c0 -0.7 0.7 -1.5 1.5 -1.9 2.1 -0.8 0.8 -3.2 -2.5 -4.6 -1.6 -0.7 -3.1 -1.8 -3.4 -2.6 -0.3 -0.8 -1 -1.4 -1.6 -1.4 -1.6 0 -1.2 2.7 0.5 3.4 0.9 0.3 1.5 1.8 1.5 3.9 0 3.4 1.6 6 3.2 5.1 0.4 -0.3 0.8 -1.1 0.8 -1.9z m28.7 -2.9 c-0.3 -0.8 0.2 -1.7 1.1 -2.1 1.5 -0.6 1.5 -0.8 -0.2 -2.1 -2.3 -1.6 -5.6 -1.9 -5.6 -0.4 0 0.6 0.5 1 1 1 0.6 0 1 0.8 1 1.8 0 2 0.8 3.2 2.3 3.2 0.5 0 0.7 -0.6 0.4 -1.4z m-43.1 -3.1 c-1.7 -1.3 -3.3 -2.2 -3.8 -1.9 -1.6 1 -0.7 2.1 2.5 3.2 4.5 1.4 4.5 1.4 1.3 -1.3z"/>
  <path d="M259 149.6 c-0.5 -1.3 -1.4 -2.7 -2 -3.1 -0.6 -0.4 -0.9 -1.3 -0.6 -2.1 0.4 -1.1 -0.7 -1.4 -5.3 -1.4 -3.3 0 -7.2 -0.7 -9 -1.6 -2.1 -1.1 -3.6 -1.3 -4.4 -0.6 -1.2 1 -4.7 1.7 -14.4 2.9 -4.5 0.5 -5.3 0.3 -5.3 -1.1 0 -1.1 0.9 -1.6 2.8 -1.7 2.7 -0.1 2.7 -0.1 -0.5 -1 -2.4 -0.7 -3 -1.3 -2.6 -2.9 0.4 -1.5 0 -2 -1.3 -2.1 -1.7 0 -1.7 -0.1 -0.2 -0.7 2 -0.8 1.3 -2.1 -2 -4 -3.3 -1.8 -3.9 0.6 -1.3 5.4 2.2 4 2.6 6.3 1.4 6.5 -0.5 0.1 -6 0.2 -12.3 0.4 -6.3 0.1 -12.5 0.5 -13.7 0.9 -1.2 0.4 -2.4 0.2 -2.7 -0.3 -0.4 -0.6 -6.4 -0.8 -15.4 -0.5 -20.9 0.6 -33 -0.9 -24.6 -3 1.6 -0.4 2.9 -1.7 3.6 -3.6 0.5 -1.7 1.3 -3 1.8 -3 1.5 0 1.8 -5.1 0.4 -5.7 -1.9 -0.7 -2 -15.9 -0.1 -16.7 1 -0.5 0.9 -0.7 0 -1.2 -1.7 -0.7 -1.7 -3.4 0 -3.5 0.6 0 -0.7 -0.9 -3 -1.9 -4.8 -2.2 -5.4 -3.6 -1.9 -4.9 1.3 -0.5 2.6 -1.7 3 -2.7 0.6 -1.5 0.8 -1.5 2.4 -0.2 2.6 2.3 5.3 3 6.8 1.7 0.8 -0.6 1.2 -1.5 0.9 -1.9 -0.3 -0.4 0.2 -1 1 -1.4 0.8 -0.3 1.7 -0.1 2 0.4 0.4 0.6 0.1 1 -0.4 1 -0.6 0 -1.1 0.9 -1.1 2 0 1.7 0.7 2 4 2 2.5 0 4 -0.5 4 -1.2 0 -1 0.2 -1 0.9 0 1.2 2 5.7 1.1 5.3 -1.1 -0.4 -2.2 1.5 -2.2 2.2 0.1 1.2 4.3 1.7 13 0.7 13.6 -1.5 0.9 -6.1 -0.4 -6.1 -1.8 -0.1 -0.6 -1.1 -2.3 -2.3 -3.7 -1.8 -2.2 -2.8 -2.6 -5.4 -2.2 -2.1 0.3 -3.3 1.1 -3.4 2.2 -0.8 11 -0.8 11.1 2.2 11.1 2.4 0 2.9 -0.4 2.9 -2.5 0 -1.4 -0.5 -2.5 -1 -2.5 -1.3 0 -3.2 -4.8 -2.5 -6 0.7 -1.2 3.5 -0.1 3.5 1.3 0 0.6 1 2.1 2.2 3.4 1.7 1.8 2.2 3.8 2.4 8.6 l0.3 6.2 3.1 -0.1 c2.3 -0.2 3 0.2 3 1.6 0 2 2.3 3.2 4.5 2.4 1.7 -0.7 2 -4.5 0.5 -6 -0.8 -0.8 -0.7 -1.9 0.2 -3.8 1.1 -2.5 1 -3 -1.2 -4.6 l-2.5 -1.9 2.4 -2 c1.3 -1.2 3.2 -2.1 4.3 -2.1 1 0 1.8 -0.6 1.8 -1.2 0 -1 0.2 -1 0.8 0 1.1 1.6 7 3.3 7.7 2.2 0.3 -0.5 1.6 -0.5 3 0 1.6 0.6 2.5 0.6 2.5 0 0 -2.1 5 -1 6.6 1.5 1.8 2.8 4.4 3.3 4.4 1 0 -0.8 0.4 -1.5 0.9 -1.5 0.4 0 0.6 2.2 0.3 5 l-0.4 4.9 2.6 -1.2 c2.2 -1 2.6 -1.8 2.4 -4.6 -0.3 -3.2 0 -3.6 3.2 -4.5 1.9 -0.5 6.4 -0.9 9.8 -0.9 7 0.1 9.4 1.4 9.6 5.5 0.1 1.3 0.8 2.4 1.9 2.6 2.2 0.4 2.2 -1.6 0 -4.1 -1.7 -1.8 -1.7 -2 0.2 -3.4 1.6 -1.1 3.9 -1.3 11 -0.8 5 0.4 9.9 0.7 10.9 0.6 3.7 0 5.7 1.8 5 4.7 -1.1 4.5 -3.3 6.2 -7.9 6.2 -4.6 0 -5.5 1 -5.5 6.1 0 2.6 0.3 2.9 2.6 2.7 2.1 -0.2 2.7 0.2 3 2 0.3 1.9 -0.1 2.2 -2.6 2.2 -2.4 0 -3 0.4 -3 2.1 0 1.1 0.5 1.7 1 1.4 1.7 -1.1 5 0.5 5 2.5 0 1 -0.5 2 -1.2 2.2 -0.8 0.3 -0.7 1.7 0.5 5.1 1.4 4.1 1.4 4.7 0.1 4.7 -0.8 0 -1.9 -1.1 -2.4 -2.4z m-89.5 -13.6 c2.2 -2.2 4.6 -4 5.3 -4 0.6 0 1.2 -0.6 1.2 -1.4 0 -1.7 -2.4 -2.8 -3.6 -1.7 -0.5 0.5 -3.2 1.6 -6.1 2.6 -5.4 1.9 -7.2 4.5 -5 7.1 1.9 2.2 4 1.5 8.2 -2.6z m30.5 3 c0 -0.5 0.7 -1 1.5 -1 1.7 0 2 -1.6 0.5 -2.5 -0.5 -0.3 -1 -1.9 -1 -3.6 0 -1.6 0.5 -2.9 1 -2.9 1.5 0 1.2 -6.7 -0.2 -7.2 -2.1 -0.8 -3.8 0.2 -3.8 2.3 0 2.4 -1.5 2.5 -2.6 0.2 -0.6 -1.5 -0.8 -1.2 -1.4 1.2 -0.9 4.2 -0.2 5.9 1.7 3.9 1.8 -1.8 4.3 -0.3 4.3 2.7 0 2.7 -1.9 3.3 -4.1 1.3 -1.8 -1.7 -1.9 -1.6 -1.9 1.8 0 1.9 0.3 3.8 0.7 4.1 1 1.1 5.3 0.8 5.3 -0.3z m48 -5.7 c0 -3.3 -0.5 -3.7 -4.7 -3.3 -3 0.2 -2.9 -0.7 0.3 -3.7 1.8 -1.6 2.3 -2.8 1.7 -3.4 -0.7 -0.7 -1.9 -0.2 -3.7 1.6 -1.9 1.8 -3.2 2.4 -4.7 2 -1.1 -0.4 -2.7 -0.1 -3.6 0.7 -1.3 1 -1.7 1 -2 0.1 -0.7 -2 -2.7 -1.5 -5.3 1.2 -1.3 1.4 -1.8 2.5 -1.1 2.5 0.7 0 2.7 1.4 4.4 3.1 l3.1 3.1 2 -2.4 c2.7 -3.2 7.4 -4.5 8.3 -2.3 0.3 0.9 0.1 2.7 -0.5 4 -1 2.1 -0.8 2.4 1.1 2.7 2.9 0.5 4.7 -1.8 4.7 -5.9z m-63.5 3.1 c1.3 -0.5 1.4 -0.9 0.3 -1.5 -1 -0.7 -1 -1.1 -0.1 -1.7 0.9 -0.6 0.7 -1.1 -0.7 -2 -2 -1.2 -3.7 -0.1 -2.5 1.7 0.3 0.5 0.1 1.2 -0.5 1.6 -2.8 1.7 -0.1 3.2 3.5 1.9z m-21.3 -6.6 c-0.9 -0.9 -0.8 -1.6 0.5 -3 1.5 -1.7 1.5 -1.8 -0.5 -1.8 -1.2 0 -2.3 0.8 -2.7 2 -0.8 2.4 0.1 4 2.3 4 1.2 0 1.3 -0.3 0.4 -1.2z m57.5 -3.5 c-0.3 -1 -0.5 -0.2 -0.5 1.7 0 1.9 0.2 2.7 0.5 1.8 0.2 -1 0.2 -2.6 0 -3.5z m-31 -7.5 c-0.2 -2.4 -0.4 -0.7 -0.4 3.7 0 4.4 0.2 6.3 0.4 4.3 0.2 -2.1 0.2 -5.7 0 -8z m24.3 6.2 c0 -1 -0.5 -2.2 -1 -2.5 -1.3 -0.8 -2.4 2 -1.6 4.1 0.8 2 2.6 0.9 2.6 -1.6z m19 -7.5 c-1.8 -3.4 -4.6 -3.2 -6.5 0.6 l-1.7 3.1 3 -0.7 c1.9 -0.4 3.3 -0.2 3.7 0.5 0.5 0.8 1 0.9 1.8 0.1 0.7 -0.7 0.7 -1.8 -0.3 -3.6z m-32.2 0.9 c3.7 -0.7 2.5 -2.4 -1.7 -2.4 -2.5 0 -4.1 0.5 -4.4 1.4 -0.6 1.5 1.5 1.8 6.1 1z m-44.1 -11.6 c-0.2 -1.8 -0.4 -0.6 -0.4 2.7 0 3.3 0.2 4.8 0.4 3.3 0.2 -1.5 0.2 -4.2 0 -6z"/>
  <path d="M90.1 143.1 c-0.7 -0.4 -6.5 -0.7 -12.9 -0.6 -6.4 0.1 -12.5 -0.2 -13.4 -0.7 -2.5 -1.2 -2.2 -3 0.5 -2.6 1.6 0.2 2.1 -0.2 1.9 -1.4 -0.1 -0.9 0.6 -1.9 1.6 -2.2 1.2 -0.4 1.8 -1.6 1.9 -3.9 0.2 -6.2 0.3 -6.7 1.8 -6.7 1.2 0 1.5 -1.3 1.5 -6 0 -4.7 -0.3 -6 -1.5 -6 -0.8 0 -1.6 -0.7 -1.6 -1.5 -0.1 -0.8 -0.3 -1.9 -0.4 -2.5 -0.1 -0.5 -0.3 -1.9 -0.4 -2.9 -0.1 -1.5 -1 -2.1 -3.3 -2.3 -4.3 -0.4 -4.9 -3.2 -1.1 -5.1 1.8 -0.9 6.5 -1.4 13.3 -1.5 11.2 -0.1 14.2 0.9 15.5 4.9 0.5 1.3 1 1.7 1.4 1 1.1 -1.7 5.1 1.6 5.1 4.4 0 1.3 0.6 3 1.4 3.7 1.1 1.1 1.2 3.2 0.6 10.1 -0.5 4.8 -0.6 9.6 -0.3 10.7 0.4 1.6 0.2 1.9 -1.1 1.4 -1.2 -0.5 -1.9 -0.1 -2.2 1.3 -0.3 1 -1.8 2.7 -3.4 3.8 -1.5 1 -2.6 2.4 -2.3 3.1 0.6 1.6 -1 2.5 -2.6 1.5z m-7.3 -4.4 c2.2 0.5 9.2 -2.1 9.2 -3.5 0 -0.5 -0.5 -1.3 -1.2 -2 -0.9 -0.9 -0.9 -1.2 0 -1.2 0.8 0 0.9 -0.7 0.2 -2.5 -0.7 -2 -0.6 -2.7 0.5 -3.1 1.9 -0.8 3 -6.1 1.5 -7.9 -1 -1.2 -1 -1.5 0.1 -1.5 0.7 0 0.3 -0.9 -1 -2.1 -1.7 -1.6 -2.5 -1.9 -3.1 -0.9 -0.6 1 -1 0.9 -1.6 -0.2 -0.5 -0.8 -1.7 -1.7 -2.6 -2.1 -1 -0.3 -1.8 -1.1 -1.8 -1.7 0 -1.6 3.6 -1.2 5.1 0.6 1.2 1.4 1.4 1.4 1.9 -0.2 0.5 -1.2 -0.2 -2.5 -2.1 -4.1 -3.4 -2.9 -4.7 -2.8 -8.1 0.2 -2.7 2.3 -2.8 2.7 -2.8 12.7 0 10.1 0.1 10.3 2.6 11.5 4.4 2.1 5.5 1 6.9 -6.9 0.7 -4.7 2 -4.9 2.9 -0.6 0.5 2.4 0.2 3.6 -0.9 4.4 -0.8 0.6 -1.5 1.8 -1.5 2.6 0 2.8 -3.4 4.9 -6.8 4.2 -2.9 -0.6 -3.2 -0.4 -3.2 1.8 0 3 0.9 4.1 2.5 2.8 0.6 -0.5 2.1 -0.7 3.3 -0.3z m18.2 -18.7 c0 -0.5 -0.9 -1 -2 -1 -1.5 0 -2 -0.7 -2.1 -2.7 -0.2 -2.5 -0.2 -2.6 -0.6 -0.5 -0.3 1.3 -0.2 3 0.1 3.8 0.6 1.6 4.6 1.9 4.6 0.4z"/>
  <path d="M99.2 142.8 c-0.7 -0.7 -1.2 -2.1 -1.2 -3.2 0 -2 0.1 -2 2.2 0.2 1.5 1.5 1.9 2.5 1.2 3.2 -0.7 0.7 -1.4 0.6 -2.2 -0.2z"/>
  <path d="M105.6 142.4 c-0.4 -0.9 -0.2 -2.2 0.3 -2.8 1.6 -1.9 0.8 -5.9 -1.3 -7.7 -1.9 -1.5 -1.9 -1.7 -0.3 -3.3 1.8 -1.9 2.3 -6.2 0.7 -6.8 -0.5 -0.2 -0.6 -2.3 -0.2 -5.3 0.7 -4.4 1 -5 2.9 -4.7 1.2 0.2 3.3 -0.4 4.7 -1.4 2 -1.2 3.5 -1.4 6.3 -0.8 2.1 0.4 4.3 0.6 5 0.5 0.6 -0.1 1.4 0.8 1.8 1.9 0.3 1.1 1.3 2 2.1 2 0.8 0 2.2 1.6 3 3.5 1.2 3 1.3 4 0.2 6.3 -1.3 2.6 -1.5 2.7 -8.6 2.3 -6.1 -0.3 -7.3 0 -7.9 1.4 -0.3 1 -0.1 2.5 0.6 3.4 0.6 0.9 1.6 2.8 2.2 4.4 1.3 3.2 2.9 3.5 4.7 0.6 1.1 -1.7 1.1 -2.4 -0.2 -4.4 -1.4 -2.2 -1.2 -3.5 0.6 -3.5 0.4 0 0.8 0.6 0.8 1.4 0 2.2 1.7 2.8 4 1.4 1.8 -1.1 2.3 -1 3.6 0.6 3.9 5.4 -0.6 10.1 -10.7 11.1 -5.1 0.5 -7.4 0.4 -8.5 -0.6 -1.3 -1.1 -1.7 -1 -2.5 0.4 -1.2 2.1 -2.5 2.2 -3.3 0.1z m10.9 -20.4 c-0.3 -0.5 -0.1 -1.1 0.4 -1.5 0.6 -0.3 0.8 -1.2 0.4 -2 -0.4 -1.1 0.2 -1.5 2.1 -1.5 2.9 0 3.5 -1.4 1 -2.4 -3.1 -1.2 -8.1 6.4 -5.8 8.7 0.9 0.9 2.6 -0.2 1.9 -1.3z"/>
  <path d="M347.4 142.6 c-0.8 -2.2 0.3 -3.3 1.8 -1.8 0.9 0.9 0.9 1.5 0 2.4 -0.9 0.9 -1.3 0.7 -1.8 -0.6z"/>
  <path d="M144.5 134 c-0.3 -0.5 0.3 -1 1.5 -1 1.2 0 1.8 0.5 1.5 1 -0.3 0.6 -1 1 -1.5 1 -0.5 0 -1.2 -0.4 -1.5 -1z"/>
  <path d="M340.5 134 c-0.4 -0.7 -0.2 -1.7 0.4 -2.3 0.6 -0.6 1.1 -1.9 1.1 -2.8 0 -0.9 0.6 -2.1 1.3 -2.7 1 -0.9 1.2 -0.2 0.7 3.5 -0.5 4.6 -2.1 6.5 -3.5 4.3z"/>
  <path d="M62.4 131.6 c-0.8 -2.1 0.3 -4.9 1.6 -4.1 0.5 0.3 1 1.5 1 2.5 0 2.5 -1.8 3.6 -2.6 1.6z"/>
  <path d="M144.8 129.4 c-0.4 -0.3 -0.4 -2.9 -0.2 -5.7 0.3 -2.9 0.6 -7.9 0.7 -11.1 0.1 -3.3 0.7 -6.1 1.2 -6.3 0.7 -0.2 1 3.8 0.9 11.4 -0.2 10.6 -0.8 13.5 -2.6 11.7z"/>
  <path d="M260.7 126.3 c-0.3 -0.5 -0.2 -1.5 0.3 -2.2 1 -1.7 4.3 -0.6 3.8 1.2 -0.6 1.5 -3.4 2.2 -4.1 1z"/>
  <path d="M135.1 121 c0.6 -1.6 1.5 -3 2 -3 1.3 0 1.1 3.4 -0.3 4.8 -2.1 2.1 -2.7 1.3 -1.7 -1.8z"/>
  <path d="M347.4 120.1 c0.3 -1.8 0.6 -3.8 0.6 -4.3 0 -0.5 0.5 -0.6 1 -0.3 1.5 0.9 1.2 3.7 -0.7 6 -1.5 1.9 -1.5 1.8 -0.9 -1.4z"/>
  <path d="M175.2 117.8 c-1.8 -1.8 -1.5 -2.8 0.8 -2.8 1.3 0 2 0.7 2 2 0 2.3 -1 2.6 -2.8 0.8z"/>
  <path d="M341 113.1 c0 -1.2 0.6 -2.1 1.6 -2.1 0.9 0 1.4 0.7 1.2 1.7 -0.5 2.5 -2.8 2.8 -2.8 0.4z"/>
  <path d="M133.4 112.9 c-0.3 -0.6 -0.1 -1.6 0.5 -2.2 0.9 -0.9 1.4 -0.8 2.1 0.3 0.9 1.5 0.4 3 -1 3 -0.5 0 -1.2 -0.5 -1.6 -1.1z"/>
  <path d="M181.7 105.4 c-1 -1.1 -0.8 -10.4 0.2 -10.4 1.3 0 2.4 7.6 1.4 9.5 -0.5 0.8 -1.2 1.2 -1.6 0.9z"/>
 </g>
 <g fill="#fcdc6e">
  <path d="M270.1 148.4 l-2.5 -3.6 2.3 -1.7 c1.9 -1.5 2.1 -2.2 1.3 -3.7 -2.3 -4.4 0.5 -9.3 4 -7 1 0.6 1.8 1.6 1.8 2.3 0 1 2.3 1.3 8.5 1.3 6.8 0 8.9 0.4 10.3 1.8 2.1 2.1 2.2 4.3 0.2 5.9 -0.8 0.7 -1 1.3 -0.5 1.3 1.2 0.2 -2.5 1.8 -4.2 1.9 -0.9 0.1 -1.1 -0.8 -0.7 -2.8 l0.6 -2.9 -6.3 -0.4 c-7.8 -0.5 -9.1 0.1 -9.4 4 -0.2 2.3 0.2 3.3 1.6 3.7 3.2 1.1 2.3 3.5 -1.3 3.5 -2.7 0 -3.8 -0.7 -5.7 -3.6z"/>
  <path d="M205.2 142.3 c-2.7 -0.4 -3.2 -0.8 -2.6 -2.1 1.3 -2.7 1.7 -23.2 0.4 -24.7 -0.6 -0.7 -2.5 -1.6 -4.3 -2.1 -3 -0.8 -2.9 -0.8 2 -1.2 8.6 -0.5 8.8 -0.2 9.2 13.4 0.1 6.5 0.7 12.7 1.3 13.8 0.7 1.4 0.6 2.1 -0.3 2.7 -0.8 0.5 -1.6 0.8 -1.9 0.7 -0.3 -0.1 -2 -0.3 -3.8 -0.5z"/>
  <path d="M250.3 142.2 c-2.4 -0.2 -4.3 -0.5 -4.3 -0.6 0 -0.2 0.7 -1.7 1.5 -3.2 1 -2 1.5 -5.9 1.5 -12 0 -8.5 -0.2 -9.3 -2.6 -11.8 l-2.7 -2.6 5.1 0 c2.8 0 5.4 0.5 5.7 1 0.4 0.6 1.1 0.8 1.6 0.5 1.1 -0.8 1.1 -0.1 -0.3 5.5 -1.4 6 -1.1 15.5 0.7 19.1 0.8 1.5 1.5 3 1.5 3.2 0 0.8 -3.4 1.2 -7.7 0.9z"/>
  <path d="M300.9 141.9 c-0.5 -0.3 -0.3 -1.8 0.6 -3.6 2.2 -4.5 1.6 -21.5 -1 -24.3 -1.8 -2 -1.8 -2 2.7 -2 3.7 0 4.7 0.4 5.8 2.5 1.1 2 1.1 2.7 0 4 -0.9 1.1 -1.1 3 -0.5 6.8 0.4 2.8 0.8 7.1 0.9 9.4 0.1 2.3 0.5 4.5 0.9 4.9 0.4 0.4 0.7 1.1 0.7 1.5 0 0.9 -8.8 1.6 -10.1 0.8z"/>
  <path d="M319.7 141.2 c-3.7 -2.3 -5.4 -5.7 -3.7 -7.7 0.7 -0.8 0.9 -1.5 0.5 -1.5 -2 0 4.8 -4.9 7.7 -5.5 5.3 -1.2 7.8 -3.3 7.5 -6.4 -0.6 -4.6 -1.8 -6.1 -4.7 -6.1 -2.5 0 -2.9 0.4 -3.2 3.1 -0.4 4.2 -3 5.9 -5.3 3.5 -2.3 -2.3 -1.2 -6.4 2.1 -7.6 3.3 -1.3 11.6 -1.3 14.9 0 l2.6 1 -0.2 11.6 c-0.1 9.9 0.1 11.8 1.5 12.6 0.9 0.5 1.6 1.6 1.6 2.4 0 2.3 -7.1 1.3 -9.7 -1.3 -1.8 -1.8 -1.9 -2.4 -0.8 -3.3 1.2 -1 1.3 -3.1 0.6 -9.4 -0.2 -1.3 -5.4 0.4 -7.2 2.3 -1 1 -1.7 3.4 -1.7 5.5 0 3.1 0.3 3.6 2.3 3.6 2.7 0 3.7 1.1 2.7 2.6 -1.2 1.9 -4.9 2.2 -7.5 0.6z"/>
  <path d="M65.5 141.1 c-0.3 -0.5 0.3 -1.2 1.3 -1.5 2.4 -0.8 2.4 -0.4 2.9 -18.9 0.3 -11.4 0.1 -16.3 -0.8 -17.3 -1.6 -2 -0.4 -2.9 3.7 -2.9 l3.4 0 0 19.3 c0 11.7 0.4 19.2 1 19.2 0.5 0 0.7 0.7 0.4 1.5 -0.7 1.7 -10.9 2.2 -11.9 0.6z"/>
  <path d="M81.3 140.8 c0.2 -0.7 1.2 -1.3 2.3 -1.4 2.8 -0.1 8.5 -3.7 8 -5.1 -0.3 -0.6 0.1 -1.7 0.9 -2.3 0.9 -0.8 1.2 -3.6 1 -11 -0.3 -8.4 -0.7 -10.4 -2.6 -13.2 -1.3 -1.8 -2.9 -3.7 -3.6 -4.1 -0.7 -0.5 -1.1 -1.2 -0.8 -1.8 2.6 -4.1 13.5 5.7 13.5 12.1 0 1.1 0.5 2 1 2 0.6 0 1 1.8 1 4 0 2.2 -0.5 4 -1.1 4 -0.6 0 -0.8 0.9 -0.4 2 0.5 1.4 -0.4 3.5 -2.9 7 -2 2.8 -3.6 5.5 -3.6 6 0 0.6 -1.1 1 -2.4 1 -1.4 0 -2.8 0.5 -3.1 1 -0.9 1.5 -7.8 1.3 -7.2 -0.2z"/>
  <path d="M113.8 140.9 c-1 -0.5 -1.8 -0.7 -1.8 -0.3 0 1.1 -3.5 -3.8 -5.3 -7.3 -1.4 -2.5 -1.5 -4.1 -0.7 -8.3 0.5 -2.8 1.4 -5.9 2 -7 0.6 -1.1 0.7 -2 0.3 -2 -0.4 0 1 -0.9 3.2 -2 5.9 -3 12.2 -2.6 16.5 1.1 2.7 2.3 3.2 3.2 2.1 3.8 -0.8 0.5 -1.2 1.8 -0.9 2.8 0.7 2.5 -4.9 5.4 -6.3 3.2 -0.4 -0.7 -0.4 -1.8 0.1 -2.5 0.6 -0.6 0.7 -1.3 0.5 -1.6 -0.3 -0.3 -0.8 -1.5 -1 -2.8 -0.4 -2 -3 -4.9 -4.6 -5 -0.3 0 -1.3 0.8 -2.1 1.8 -1.8 1.9 -2.9 8.2 -1.6 8.2 0.5 0 0.2 0.8 -0.7 1.7 -3.6 3.6 0.9 13.3 6.2 13.3 1.4 0 3.4 -0.5 4.5 -1.1 1.6 -0.9 2.2 -0.8 2.9 0.2 0.5 0.9 0.4 1.6 -0.4 1.8 -0.7 0.2 -1.6 1 -2 1.7 -0.9 1.6 -8.4 1.8 -10.9 0.3z"/>
  <path d="M150.5 140.3 c2.1 -5.1 2.5 -9.2 2.1 -21.9 -0.2 -7.6 -0.7 -14.7 -1.1 -15.6 -0.4 -1 -0.3 -1.8 0.1 -1.9 0.5 -0.1 2.6 -0.2 4.6 -0.3 l3.8 -0.3 -0.2 18.7 c-0.1 10.3 0.2 19.2 0.6 19.8 0.4 0.7 2.7 1.2 5.2 1.2 4.9 0 10 -3.5 10.7 -7.4 0.3 -2 0.4 -2 1.4 0.4 0.6 1.4 0.8 4 0.6 5.8 l-0.5 3.2 -14 0 c-13 0 -14 -0.1 -13.3 -1.7z"/>
  <path d="M184 141.2 c0 -0.4 0.5 -1.3 1.1 -1.9 0.7 -0.7 1 -4.1 0.9 -8.5 -0.1 -4 -0.2 -8.9 -0.1 -11 0.1 -2.2 -0.5 -4.3 -1.5 -5.3 -0.9 -0.9 -1.4 -1.9 -1 -2.2 0.7 -0.8 8.5 -0.7 9.3 0.1 1.1 1 1.3 9.7 0.4 16.1 -0.5 3.4 -0.5 6.2 0 6.6 0.5 0.3 0.6 2 0.3 3.7 -0.6 3 -0.9 3.2 -5 3.2 -2.4 0 -4.4 -0.4 -4.4 -0.8z"/>
  <path d="M226 141 c-0.8 -0.5 -2.5 -1 -3.7 -1 -1.2 0 -2.7 -0.9 -3.3 -1.9 -1.5 -2.9 -3.1 -15.5 -2 -15.9 0.6 -0.2 1 -1.2 1 -2.2 0 -3.4 1.2 -5.1 4.7 -6.5 8.4 -3.5 16.7 -0.6 17.5 6.1 0.3 2.9 0 3.9 -1.8 5.1 -2 1.3 -2.6 1.3 -5.1 -0.1 -2.4 -1.2 -2.5 -1.5 -1 -2.1 2.1 -0.9 2.2 -2.3 0.1 -6.3 -1.8 -3.6 -4.3 -4.2 -5.1 -1.2 -0.3 1.1 -0.9 2 -1.4 2 -0.5 0 -0.6 0.6 -0.3 1.4 0.3 0.8 0.1 1.7 -0.5 2.1 -0.6 0.3 -1.1 3.5 -1.1 7 0 5.7 0.3 6.6 2.6 8.4 3.1 2.5 7.1 2.7 10.1 0.6 1.9 -1.3 2.2 -1.3 2.7 0.1 0.4 0.9 -0.2 1.8 -1.5 2.2 -1.1 0.5 -1.9 1.2 -1.7 1.7 0.4 1.4 -8.3 1.8 -10.2 0.5z"/>
  <path d="M274.8 128.3 c-4.1 -4.7 -4.2 -8.3 -0.6 -13.5 1.6 -2.4 2.7 -2.8 6.4 -2.8 4 0 7.6 -1.7 7.4 -3.5 -0.1 -2.1 0.4 -2.5 3.4 -2.5 3.5 0 5 1.7 3.9 4.6 -0.4 1.1 -1.3 1.4 -3.2 0.9 -1.9 -0.4 -2.2 -0.3 -1.1 0.5 0.8 0.5 1.1 1 0.7 1 -0.4 0 -0.3 0.8 0.2 1.8 1.9 3.5 2 10 0.3 11.4 -5.4 4.3 -14.5 5.3 -17.4 2.1z m13.2 -7.1 c0 -3.2 -3.7 -8.2 -6 -8.2 -2.1 0 -2.6 1 -3.5 7.4 -0.6 3.9 -0.5 4.6 0.9 4.6 1 0 1.5 0.4 1.1 0.9 -0.3 0.6 0.3 1.4 1.2 2 1.4 0.8 2.2 0.5 4 -1.7 1.3 -1.5 2.3 -3.8 2.3 -5z"/>
  <path d="M166.1 126.6 c-1.7 -2 -2.6 -7.6 -1.2 -7.6 0.6 0 1.1 -1.1 1.1 -2.5 0 -1.8 0.5 -2.5 2 -2.5 1.8 0 2 0.7 2 6.4 0 6.5 -1.6 9 -3.9 6.2z"/>
  <path d="M261.8 118.8 c-0.9 -0.7 -1.8 -2.5 -2 -4 -0.5 -2.6 -0.3 -2.8 2.7 -2.8 4 0 7.4 4.2 5.4 6.6 -1.4 1.7 -4 1.8 -6.1 0.2z"/>
  <path d="M173.9 108 c-0.7 -2.2 -1.8 -4.5 -2.6 -5.1 -2.3 -2 -1.4 -2.9 2.8 -2.9 2.8 0 3.9 0.4 3.6 1.3 -0.2 0.6 0 2 0.4 2.9 1.2 2.2 0 7.8 -1.7 7.8 -0.7 0 -1.9 -1.8 -2.5 -4z"/>
  <path d="M302.6 104.1 c-2.2 -2.5 -2 -3.6 1.1 -5 4.9 -2.2 7.3 3.2 2.5 5.8 -1.5 0.8 -2.3 0.6 -3.6 -0.8z"/>
 </g>
</svg>